<?xml version="1.0" standalone="no"?><!DOCTYPE svg PUBLIC "-//W3C//DTD SVG 1.1//EN" "http://www.w3.org/Graphics/SVG/1.1/DTD/svg11.dtd"><svg t="1522562795994" class="icon" style="" viewBox="0 0 1024 1024" version="1.1" xmlns="http://www.w3.org/2000/svg" p-id="1055" xmlns:xlink="http://www.w3.org/1999/xlink" width="200" height="200"><defs><style type="text/css"></style></defs><path d="M390.4 524.8V320l13.44-56.32 19.2-26.24 45.44-22.4 42.24-9.6 64.64 15.36 35.2 38.4 19.84 46.72 6.4 78.08-4.48 102.4 1.28 46.08-39.04 72.32-60.16 32.64-49.28 3.84-49.92-23.04-39.68-49.92-7.68-24.32z" fill="#0EAFC9" p-id="1056"></path><path d="M509.44 700.8c-102.4 0-185.6-83.2-185.6-185.6 0-7.04 5.76-12.8 12.8-12.8s12.8 5.76 12.8 12.8c0 88.32 71.68 160 160 160s160-71.68 160-160c0-7.04 5.76-12.8 12.8-12.8s12.8 5.76 12.8 12.8c0 102.4-83.2 185.6-185.6 185.6z m0-48c-72.32 0-137.6-64.64-137.6-135.68L371.2 327.04c0-72.32 65.92-138.24 138.24-138.24s138.24 65.92 138.24 138.24l-0.64 188.16c0 72.32-65.28 137.6-137.6 137.6z m0-438.4c-57.6 0-112.64 55.04-112.64 112.64l0.64 190.08c0 57.6 53.76 110.08 112 110.08 57.6 0 112-54.4 112-112l0.64-188.16c0-57.6-54.4-112.64-112.64-112.64z" fill="#29E0F6" p-id="1057"></path><path d="M620.8 371.2h-25.6c-7.04 0-12.8-5.76-12.8-12.8s5.76-12.8 12.8-12.8h25.6c7.04 0 12.8 5.76 12.8 12.8s-5.76 12.8-12.8 12.8zM620.8 428.8h-25.6c-7.04 0-12.8-5.76-12.8-12.8s5.76-12.8 12.8-12.8h25.6c7.04 0 12.8 5.76 12.8 12.8s-5.76 12.8-12.8 12.8zM620.8 486.4h-25.6c-7.04 0-12.8-5.76-12.8-12.8s5.76-12.8 12.8-12.8h25.6c7.04 0 12.8 5.76 12.8 12.8s-5.76 12.8-12.8 12.8zM422.4 371.2h-25.6c-7.04 0-12.8-5.76-12.8-12.8s5.76-12.8 12.8-12.8h25.6c7.04 0 12.8 5.76 12.8 12.8s-5.76 12.8-12.8 12.8zM422.4 428.8h-25.6c-7.04 0-12.8-5.76-12.8-12.8s5.76-12.8 12.8-12.8h25.6c7.04 0 12.8 5.76 12.8 12.8s-5.76 12.8-12.8 12.8zM422.4 486.4h-25.6c-7.04 0-12.8-5.76-12.8-12.8s5.76-12.8 12.8-12.8h25.6c7.04 0 12.8 5.76 12.8 12.8s-5.76 12.8-12.8 12.8zM737.92 454.4c-5.12 0-10.24-3.2-12.16-8.32l-26.88-74.24-12.8 49.92c-1.92 7.04-8.96 10.88-15.36 8.96-7.04-1.92-10.88-8.96-8.96-15.36l23.68-89.6c1.28-5.12 6.4-9.6 11.52-9.6 5.76 0 10.88 3.2 12.8 8.32l27.52 76.16 35.84-122.24c1.92-5.76 7.04-8.96 12.8-8.96 5.76 0 10.88 4.48 12.16 10.24l23.68 107.52 5.76-19.84c1.92-7.04 8.96-10.88 16-8.32 7.04 1.92 10.88 8.96 8.32 16l-20.48 67.2c-1.92 5.76-7.04 9.6-12.8 8.96-5.76 0-10.88-4.48-12.16-10.24l-23.68-106.88-32.64 112c-1.28 4.48-5.76 8.32-12.16 8.32 0.64 0 0.64 0 0 0zM282.88 454.4c-0.64 0-0.64 0 0 0-5.76 0-10.88-3.84-12.16-8.96l-32.64-112-23.68 106.88c-1.28 5.76-6.4 9.6-12.16 10.24-5.76 0-10.88-3.2-12.8-8.96l-20.48-67.2c-1.92-7.04 1.92-14.08 8.32-16 7.04-1.92 14.08 1.92 16 8.32l5.76 19.84 23.68-107.52c1.28-5.76 6.4-9.6 12.16-10.24 5.76 0 10.88 3.84 12.8 8.96l35.84 122.24 27.52-76.16c1.92-5.12 7.04-8.96 12.8-8.32 5.76 0 10.24 3.84 11.52 9.6l23.68 89.6c1.92 7.04-2.56 14.08-8.96 15.36-7.04 1.92-14.08-2.56-15.36-8.96l-12.8-49.92L294.4 446.08c-1.28 5.12-6.4 8.32-11.52 8.32z" fill="#29E0F6" p-id="1058"></path><path d="M476.8 691.2H537.6v158.72h-60.8z" fill="#0EAFC9" p-id="1059"></path><path d="M550.4 862.72H464V678.4H550.4v184.32z m-60.8-25.6H524.8V704h-35.2v133.12z" fill="#29E0F6" p-id="1060"></path><path d="M555.52 892.8H456.32c-12.16 0-21.76-9.6-21.76-21.76s9.6-21.76 21.76-21.76h99.2c12.16 0 21.76 9.6 21.76 21.76s-9.6 21.76-21.76 21.76z" fill="#0EAFC9" p-id="1061"></path><path d="M555.52 905.6H456.32c-19.2 0-34.56-15.36-34.56-34.56s15.36-34.56 34.56-34.56h99.2c19.2 0 34.56 15.36 34.56 34.56s-15.36 34.56-34.56 34.56z m-99.2-42.88c-5.12 0-8.96 3.84-8.96 8.96s3.84 8.96 8.96 8.96h99.2c5.12 0 8.96-3.84 8.96-8.96s-3.84-8.96-8.96-8.96H456.32z" fill="#29E0F6" p-id="1062"></path></svg>